<?xml version="1.0" encoding="UTF-8"?>
<svg id="Layer_2" xmlns="http://www.w3.org/2000/svg" viewBox="0 0 1766.23 1511.95">
  <defs>
    <style>
      .cls-1 {
        fill: #ffb612;
      }
    </style>
  </defs>
  <g id="Vector_layer">
    <g>
      <path class="cls-1" d="M250.96,1063.02c-35.58-19.59-73.84-31.73-107.55-54.77-23.17-13.66-41.42-33.79-62.95-49.69-57.11-44-112.38-90.85-58.53-163.73,38.6-54.88,104.95-74.96,164.12-99.41,32.25-13.25,65.1-24.97,97.35-38.2,9.96-2.14,26.86-17.44,33.89-5.09,1.97,4.8-1.36,10.57-6.64,10.9-10.6,4.32-21.1,8.93-31.77,13.09-32.82,12.96-65.89,25.22-98.5,38.72-54.13,21.74-114.04,41.79-148.01,92.64-40.76,57.09,2.11,94.62,46.46,129.42,25.66,18.92,47.68,42.62,74.96,59.15,22.71,13.9,46,26.77,70.94,36.22,11.76,4.91,23.29,10.47,34.2,17.08,8.83,4.98.83,19.01-7.98,13.66Z"/>
      <path class="cls-1" d="M314.18,1485.55c-31.31.57-80.64,2.37-78.46-41.39-1.12-30.34,2.13-60.61,1.94-90.94-.82-77.83,1.39-155.65,7.88-233.19-.55-34.6,2.86-68.98,5.24-103.41,0,0,.02,0,.02,0,1.84-9.72,17.1-7.5,15.59,2.67-.18,16.22-2.78,32.31-3.78,48.49-1.69,29.12-.16,58.39-3.61,87.42-5.44,47.5-3.63,95.41-5.64,143.11-.43,21.16.17,42.33.1,63.5-.19,24.95-2.54,49.84-2.12,74.8.8,7.8-.92,17.55,4.44,23.84,17.93,13.31,42.46,8.23,63.4,9.35,37.59.54,75.11-2.59,112.72-.84,32.09.46,30.6-6.55,31.81-35.68.61-17.84,2.45-35.62,2.44-53.48-1.35-54.3-3.53-108.55-8.25-162.66-.78-10.21,15.1-11.5,15.79-1.15,1.18,21.47,3.78,42.86,4.88,64.33.59,36.22,3.67,72.39,3.3,108.62-.68,18.13-2.15,36.22-2.71,54.36-.07,46.89-31.39,41.52-67.35,41.14-32.57-1.43-65.04,2.48-97.61,1.1Z"/>
      <path class="cls-1" d="M668.36,1487.05c-68,.39-136.02-4.27-203.9-5.83-6.75.81-15.66-3.02-12.7-11.14,2.36-6.32,8.96-4.94,14.22-4.62,67.95,1.58,135.68,6.23,203.65,5.77-17.8-37.4-51.67-66.04-69.01-103.59-6.61-16.79-5.56-35.26-6.06-52.98-.2-21.83,1.65-43.59,2.26-65.4,1.93-48.16,1.88-96.34,2.26-144.52,1.64-33,6.17-65.8,8-98.79,1.04-7.36-2.55-19.89,7.99-20.87,12.21.55,7.38,15.66,7.69,23.73-1.49,21.76-3.44,43.49-5.52,65.2-4.44,43.99-2,88.34-3.19,132.48-.68,38.86-3.98,77.68-3.56,116.54-.57,21.04,2.72,42.22,16.37,59.01,14.09,18.99,28.62,37.68,42.08,57.12,10.31,14,33,48.88-.57,47.9Z"/>
      <path class="cls-1" d="M604.24,1100.35c-10.32-16.65,45.85-33.16,57.18-38.49,15.15-5.53,29.93-12.28,42.97-21.88,38.39-28.01,54.46-55.45,58.77-102.76,2.77-19.9-9.78-37.55-19.01-54.12-11.98-23.18-27.51-44.09-42.91-65.05-17.33-26.83-38.81-50.55-61.72-72.71-34.65-33.86-72.73-64.2-113.2-90.84-8-5.1-15.69-10.7-23.89-15.47-5.42-2.35-12.76-4.62-10.49-12.19,6.79-15.47,28.98,6.63,37.84,10.99,39.38,26.02,77.67,54.39,111.41,87.48,30.96,27.75,57.61,59.6,80.61,94.18,15.38,19.69,28.22,41.09,40.23,62.95,7.57,12.94,14.71,26.72,17.07,41.68,1.32,14.81-2.39,29.6-5.18,44.06-2.25,12.1-6.44,23.75-12.63,34.4-22.1,36.87-59.53,62.73-99.84,76.24-13.12,5.12-26.44,10.04-38.6,17.25-5.61,4.01-12.28,12.22-18.61,4.3Z"/>
      <path class="cls-1" d="M305.4,661.19c-29.59-14.71-48.33-78-56.49-109.03-13.33-52.32-14.67-108.87,5.62-159.6,17-46.42,52.96-91,104.01-99.58,87.19-9.11,171.06,45,196.33,129.38,10.25,35.61,1.27,72.63-6.6,107.79-6.77,29.71-12.81,60.64-29.94,86.43-4.86,7.77-18.04,26.39-24.84,10.46-.82-3.26.81-6.53,3.35-8.55,4.93-5.32,8.93-11.38,12.61-17.62,9.64-17.47,14.77-36.88,19.29-56.19,8.1-38.37,21.34-78.32,11.08-117.5-23.11-77.01-98.95-126.1-178.54-118.63-58.69,10.58-90.26,70.51-102.23,123.88-6.2,28.4-4.62,58-.83,86.63,6.61,37.75,17.42,75.37,36.54,108.79,4.62,7.45,10.54,13.97,16.78,20.09,4.83,4.73.56,13.76-6.11,13.24ZM496.03,619.35c.78-.62,1.61-1.13,2.49-1.48-.01,0-.02,0-.03,0-.3.13-.6.27-.9.4,0,0,.01,0,.02-.01-.28.17-.57.35-.86.52-.24.19-.48.38-.71.57Z"/>
      <path class="cls-1" d="M1157.51,1048.24c-45.28-13.06-84.28-40.36-122.14-67.51-37.45-26.24-71.54-58.09-93.55-98.64-8.95-19.69-14.55-42.95-7.29-64.02,11.74-28.49,30.65-53.59,52.34-75.3,50.85-53.28,119.57-83.92,190.58-99.74,14.84-3.87,29.38-8.71,44.02-13.25,6.24-1.31,14.63-6.11,19.02.9,5.69,12.35-11.32,12.77-19.01,15.61-25.97,8.94-52.73,15.22-79.18,22.49-61.85,17.93-117.53,52.75-159.43,101.6-15.64,20.31-36.39,44.44-35.83,71.35,8.67,70.82,88.43,120.16,142.61,157.13,12.09,7.73,24.57,14.86,37.56,20.98,10.58,4.92,21.5,9.01,32.6,12.58,2.52.67,5.01,1.7,6.36,4.08,3.68,5.57-2.18,13.76-8.66,11.75Z"/>
      <path class="cls-1" d="M1219.93,1511c-31.94-3.59-54.11-21.53-53.07-55.42.23-25.49-.13-50.97-.59-76.47-1.62-51.44-5.24-102.77-6.33-154.23-3.16-38.75.44-77.57-2.99-116.31-1.59-37.87,1-75.79-1.78-113.67-.88-25.7.56-51.45-1.61-77.12.5-11.28-9-43.81,9.55-39.82,4.83,1.87,5.6,7.11,4.55,11.58-.14,5.76.42,11.57.88,17.3,1.63,19.17,2.52,38.42,2.15,57.66-.32,38.17,3.2,76.28,1.38,114.46-.31,19.3,1.5,38.55,2.2,57.83,1.26,19.35-.92,38.72.02,58.07,2.37,64.36,6.11,128.66,7.92,193.03.92,24.37.09,48.77.71,73.11.27,32.39,38.11,36.55,63.26,34.89,19.16-.56,38.28-2.06,57.45-.89,13.01-.17,27.14,2.55,39.5-2.3,7.48-4.96,5.8-15.44,6.86-23.29,1.85-41.27,2.91-82.49,1.19-123.79-.18-25.78,1.6-51.53,1.35-77.31-.92-24.68-.79-49.35.88-73.99.31-8.4.35-16.8.43-25.2-.36-10.16,15.75-10.7,15.83-.4.08,16.92-.81,33.8-1.66,50.69-.2,38.54.66,77.07-.99,115.6.74,49.78,1.95,99.72-2.55,149.35-3.25,33.67-43.72,26.61-67.89,26.23-25.54-1.49-51.18,3.27-76.66.38Z"/>
      <path class="cls-1" d="M1545.56,1510.06c-33.73-3-67.37-8.44-101.31-8.27-26.6.26-53.04,5.11-79.56,5.34-10.14-1-8.59-16.92,1.63-15.74,35.56-1.45,71.21-8.01,106.94-4.36,27.25,1.67,54.23,6.04,81.47,7.67,20.37.71,40.71-1.12,61.08-.99-45.97-43.09-74.09-95.07-72.44-159.13-2.46-77.84.86-155.64,1.94-233.46-.38-52.53.13-105.05,1.65-157.57.41-13.15.36-26.3-.26-39.44.51-8.77-4.43-25.39,8.71-25.61,4.84.25,8.16,5.64,6.79,10.11.69,25.62,1.21,51.24.13,76.89-2.41,78.35-.15,156.73-3.33,235.07-.75,51.57-1.53,103.25,1.27,154.76.79,15.14,3.49,30.2,9.05,44.34,8.69,25.46,24.8,47.35,42.46,67.32,6.67,9.19,26.9,22.1,27.1,32.57-3.76,14.4-23.61,8.57-34.71,10.11-19.53.46-39.07,1.79-58.6.39ZM1554.84,894.26s.08-.03.12-.04c-.29.02-.59.02-.89.01.26,0,.51.02.77.03Z"/>
      <path class="cls-1" d="M1547.65,888.07c-4.77-12.89,12.87-12.42,20.8-15.33,22.83-6.5,45.57-13.44,67.64-22.22,74.05-32.06,162.78-90.09,82.35-170.8-41.62-43.21-87.58-82.45-136.87-116.6-13.13-8.84-26.76-16.86-40.35-24.97-6.4-4.93-21.37-7.39-16.96-18.18,5.89-9.86,16.33.26,23.3,3.57,9.77,5.81,19.56,11.61,29.22,17.6,57.91,37.7,110.78,83.05,158.19,133.12,73.91,81.07,3.57,146.47-74.38,182.34-21.72,11.14-45.05,18.51-68.31,25.66-11.2,3.45-22.48,6.68-33.9,9.32-3.82,2.06-9.03.28-10.77-3.67,0,0,.04.14.04.14Z"/>
      <path class="cls-1" d="M1578.44,771.74c-12.58-2.5-5.14-13.26-2.92-20.9,5.37-17.38,4.65-30.98-10.14-43.12-22.59-23.94-52.57-37.47-81.46-51.97-7.64-4.37-14.91-8.82-22.4-13.21-8.95-6.04,1.35-19.54,9.73-12.6,32.24,20.56,69.99,32.35,97.82,59.53,14.11,12.13,28.33,27.55,25.24,47.66-1.92,9.41-3.74,34.49-15.86,34.61Z"/>
      <path class="cls-1" d="M1154.53,904.45c-10.28-5-20.24-10.69-30.36-16.04-16.71-9.9-45.77-22.21-37.69-46.33,8.74-20.19,26.85-35.31,45.25-46.59,12.53-4.52,17.12,11.41,2.77,16.83-9.7,6.99-45.08,33.48-29.01,45.45,16.64,13.19,37.44,22.53,55.74,32.37-.15-.07-.29-.15-.43-.22,0,.01-.01.02-.02.04,9.52,3.91,3.14,18.64-6.24,14.5ZM1161.22,890.13c.15.08.31.16.47.24h0c.61.41,1.22.82,1.7,1.37-.62-.64-1.35-1.17-2.16-1.61Z"/>
      <path class="cls-1" d="M1397.7,685.47c-18.94.54-50.93-34.15-60.8-49.63-8.24-20.36,13.37-36.8,22.53-52.93,7.22-9.12,19.85-13.72,31.2-10.98,8.77,2.12,15.63,8.82,24.48,10.89,2.94.67,3.5-4,5.27-5.65,5.65-9.67,24.23-25.22,23.85-35.75-3.45-13.02-14.3-22.38-19.5-34.64-13.14-23.48,5.85-47.4,23.5-62.1,29.88-28.08,59.47-3.8,75.25,25.57,9.82,16.17,17.15,31.43,8.9,50.19-17.81,38.12-38.52,74.71-61.5,109.92-9.42,14.6-18.34,30.56-32.38,41.23-12.2,7.6-26.27,13.59-40.81,13.87ZM1399.12,669.66c33.64-3.21,45.97-27.67,61.85-53.37,11.82-17.6,22.47-35.89,32.65-54.49,6.64-11.57,12.43-23.59,18.3-35.56,3.91-7.31,8.13-14.9,8.26-23.4.1-7.01-4.17-12.81-7.23-18.81-4.75-8.94-9.68-17.99-17.01-25.1-7.68-7.45-17.88-15.02-28.54-8.51-12.18,7.49-23.12,18.53-29.65,31.31-5.85,14.95,7.45,27.52,14.51,39.41,22.26,32.01-9.13,46.07-22.89,71.81-16.68,15.58-30.46-4.47-46.58-5.99-10.57.72-14.67,11.94-20.3,19.25-4.51,6.66-11.04,12.76-11.82,21.18,4.81,10.52,36.83,43.34,48.43,42.27Z"/>
      <path class="cls-1" d="M1228.41,640.31c-5.85-3.69-6.32-11.99-9.35-17.77-6.33-15.79-13.24-31.37-18.47-47.58-15.42-46.13-13.35-96.47-2.71-143.43,13.83-73.47,81.05-116.61,151.16-126.84,18.72-3.68,38.41-3.47,55.82,5.09,19.12,8.24,38.06,18.67,50.71,35.68,12.22,14.02,19.03,31.48,24.77,48.92,4.4,13.33,9.27,26.79,11.39,40.65-.23,9.04-13.78,10.25-15.65,1.4-1.37-6.05-2.78-12.09-4.55-18.03-7.17-21.68-12.95-44.76-27.93-62.6-11.91-16.14-30.19-25.2-48.24-32.84-12.2-5.52-25.62-5.44-38.63-3.47-54.46,7.19-110.92,34.69-134.56,86.73-15.16,41.05-19.85,86.06-14.84,129.47,3.36,20.93,9.96,41.19,18.12,60.72,4.67,11.34,9.25,22.7,13.85,34.06,2.67,6.28-4.84,13.1-10.88,9.84Z"/>
      <path class="cls-1" d="M431.08,419.79c-6.31-.73-9.45-7.24-13.91-10.79-6.45-5.06-12.28-10.74-16.89-17.56-3.94-6.14-15.55-11.86-9-20.07,10.67-9.33,19.52,9.26,25.75,15.99,4.03,5.06,9.73,8.38,14.05,13.16,6.85-9.35,12.58-19.67,21.16-27.59,4.88-3.53,8.62-8.11,12.45-12.66,4.82-4.78,13.76-.38,13.17,6.28-.76,5.28-5.1,8.37-8.23,12.23-8.12,6.42-14.62,14.19-20.09,22.97-5.65,6.18-8.73,18.18-18.45,18.04Z"/>
      <path class="cls-1" d="M385.2,433.78c.1-2.12,1.07-4.15,2.65-5.55,1.59-1.4,3.54-1.99,5.63-1.99,4.31,0,7.74,4.12,7.54,8.28-.1,2.12-1.07,4.15-2.65,5.55-1.59,1.4-3.54,1.99-5.63,1.99-4.31,0-7.74-4.12-7.54-8.28Z"/>
      <path class="cls-1" d="M490.33,433.7c.1-2.12,1.07-4.15,2.65-5.55,1.59-1.4,3.54-1.99,5.63-1.99,4.31,0,7.74,4.12,7.54,8.28-.1,2.12-1.07,4.15-2.65,5.55-1.59,1.4-3.54,1.99-5.63,1.99-4.31,0-7.74-4.12-7.54-8.28Z"/>
      <path class="cls-1" d="M427.58,492.17c-21.35-3.36-43.46-5.59-62.27-17.21-3.47-2.12-8.24-3.59-9.03-8.13-.97-4.13,1.89-8.59,6.06-9.41,7.92-.34,15.95,8.01,23.96,10.11,9.15,3.59,18.89,5.26,28.58,6.61,9.79,1.04,19.54,4.25,29.45,3.04,13.03-2.73,26.57-2.65,38.63-9.01,7.02-3.17,13.92-6.51,21.05-9.4,3.55-3.89,10.46-2.85,12.74,1.9,3.68,7.94-4.74,12.68-11.21,14.54-6.29,2.78-12.45,5.84-18.79,8.51-9.29,4.35-19.24,6.49-29.44,7.11-9.78,2.28-19.81,3.43-29.74,1.34Z"/>
      <path class="cls-1" d="M1276.68,467.77c.1-2.12,1.07-4.15,2.65-5.55,1.59-1.4,3.54-1.99,5.63-1.99,4.31,0,7.74,4.12,7.54,8.28-.1,2.12-1.07,4.15-2.65,5.55-1.59,1.4-3.54,1.99-5.63,1.99-4.31,0-7.74-4.12-7.54-8.28Z"/>
      <path class="cls-1" d="M1332.95,447.02c.1-2.12,1.07-4.15,2.65-5.55,1.59-1.4,3.54-1.99,5.63-1.99,4.31,0,7.74,4.12,7.54,8.28-.1,2.12-1.07,4.15-2.65,5.55-1.59,1.4-3.54,1.99-5.63,1.99-4.31,0-7.74-4.12-7.54-8.28Z"/>
      <path class="cls-1" d="M1285.42,514.22c-8.84-13.44,14.75-17.05,22.97-21.38,16.98-7.87,34.43-15.12,52.9-18.43,3.39-.82,6.21-2.74,8.82-4.94,11.5-5.9,20.87,11.03-.48,18.79-5.81,2.49-12.26,2.92-18.33,4.51-13.1,4.18-25.73,9.65-38.27,15.25-3.74,1.46-7.48,2.94-11.21,4.44-5.12,2.45-11.49,7.35-16.4,1.76Z"/>
      <path class="cls-1" d="M1239.44,454.52c-4.53-10.88,10.34-13.33,16.9-17.77,7.45-4.29,14.68-9.76,23.36-11.08,6.82-.94,11.31,8.14,6.64,13.08-1.91,2.43-4.97,2.39-7.6,3.46-5.92,2.76-11.36,6.43-17.03,9.67-3.13,1.86-6.66,2.92-9.76,4.81-3.65,3.56-10.24,2.48-12.52-2.17Z"/>
      <path class="cls-1" d="M1315.28,431.28c-10.34-3.04-4.12-14.57-2.58-21.68,1.86-6.98,2.99-14.13,5.2-21.02,1.47-6.74,9.15-11.54,15.37-7.4,3.84,2.82,6.35,7.1,10.36,9.82,2.86,2.36,5.67,4.8,8.81,6.81,4.39,1.76,7.76,6.21,5.79,11-7.01,12.83-20.18-2.55-27.29-7.83-1.69,8.24-3.89,16.36-6.11,24.47-1.07,4.21-5.42,6.87-9.55,5.84Z"/>
      <path class="cls-1" d="M1483.34,316.05c-3.13-6.93-2.43-15.02-5-22.19-3.59-10.99-8.7-21.47-12.29-32.46-5.19-17.35,18.38-19.8,15.35-3.9,6.67,18.3,15.84,36.48,16.35,56.23-1.32,6.6-11.12,8.27-14.42,2.32Z"/>
      <path class="cls-1" d="M1515.56,313.27c-5.35-2.98-4.84-9.91-5.92-15.16-2.25-13.94-6.41-27.55-11.53-40.68.08.2.13.35.21.54-3.47-7.45-6.56-18.71,5.44-18.96,6.89.57,7.16,8.28,9.31,13.29,6.14,15.21,11.02,33.43,13.36,50.52,3.58,6.55-4.43,14.25-10.87,10.44Z"/>
      <path class="cls-1" d="M1487.29,338.52c-.15-4.19,3.31-8.19,7.63-8.19s8.04,3.21,8.19,7.63c.15,4.19-3.31,8.19-7.63,8.19s-8.04-3.21-8.19-7.63Z"/>
      <path class="cls-1" d="M1516.03,332.03c-.15-4.19,3.31-8.19,7.63-8.19s8.04,3.21,8.19,7.63c.15,4.19-3.31,8.19-7.63,8.19s-8.04-3.21-8.19-7.63Z"/>
      <path class="cls-1" d="M535.35,322.16c0-4.32,3.63-7.89,7.94-7.89s7.91,3.63,7.89,7.94c0,4.32-3.63,7.89-7.94,7.89s-7.91-3.63-7.89-7.94Z"/>
      <path class="cls-1" d="M589.74,259.34c-18.39-13.53,6.72-42.83,22.96-27.83,15.9,12.44-8.3,38.24-22.96,27.83Z"/>
      <path class="cls-1" d="M715.8,236.44c-32.78-.37-49.53-37.13-40.11-65.67-1.09-1.2-2.08-2.5-2.99-3.83-27.51,1.8-73.37-20.06-84.6-45.85-2.64-17.83,27.77-33.71,43.13-34.1-17.09-23.27,5.58-43.51,25.13-54.61,10.5-7.28,22.12-13.54,35.21-13.83,58.91-36.7,74.44-17.7,75,46.05,8.57-3.49,17.1-7.05,25.6-10.69,7.59-2.2,14.54-8.99,22.58-8.33,6.59,1.5,7.96,11.52,1.79,14.54-16.45,7.98-33.43,14.87-50.4,21.69-.17,3.45-.38,6.9-.61,10.34-.32,4.73-.63,9.45-.94,14.18,7.07-8.78,14.78-18.88,26.91-19.88,11.83-2.32,23.18,10.43,21,21.86-5.54,16.27-26.12,17.87-39.1,26.04,1.73,5.48.24,11.21-.79,16.68,2.15,8.84,1.42,18.2-.28,27.07-5.98,29.88-23.39,56.9-56.51,58.34ZM718.38,220.7c20.56-3.82,31.87-19.2,36.59-38.87-4.79,5.22-9.57,11.71-16.67,13.63-2.18,5.57-5.91,13.72-13.3,10.48-3.14-1.22-5.81-3.58-6.53-6.98-.02-14.93,12.04-27.38,10.62-42.85-3.27,1.3-6.63,2.34-10.04,3.23-2.41.63-4.84,1.18-7.28,1.68-1.58,10.69-10.13,20.43-21.71,17.54-4.73,19.23,6.16,43.14,28.33,42.14ZM754.95,154.99c.28-.65.54-1.31.79-1.97.11-.33.21-.66.31-.99,0-.01-.01-.02-.02-.03-.35,1-.72,2-1.08,2.99ZM667.14,151.16c-.57-3.67-.97-7.4-1.34-11.09-.36-3.55-.59-7.12-.71-10.69-12.39-3.86-16.94-16.27-24.07-25.79-14.01-3.83-27.95,4.46-37.13,14.58,15.53,17.97,39.37,31.14,63.26,32.98ZM682.97,149.91c.51-.08,1.02-.16,1.52-.24,1.73-3.75,3.68-7.37,5.78-10.9-1.68-2.61-3.41-5.17-5.37-7.58-1.3.08-2.59.15-3.89.2.03.66.07,1.33.1,1.99.39,5.52.98,11.06,1.85,16.53ZM709.71,140.46c.67,1.44,1.23,2.92,1.68,4.44,6.32-1.33,12.44-3.45,18.22-6.35.02-1.35.01-2.71-.03-4.06-4.82-1.96-9.9-3.56-15.15-3.62-.85,1.2-1.69,2.4-2.53,3.61-1,1.46-2,2.92-2.98,4.39.27.52.54,1.05.79,1.59ZM746.83,120.44c1.79-10.8,2.51-21.7,3.15-32.62-.94.33-1.89.66-2.83.99-.74.26-1.47.51-2.21.77-1.63,2.27-3.3,4.52-5.01,6.74-1.55,2.01-3.11,4-4.65,6.02,2.94,5.48,5.4,11.2,7.28,17.14,1.39.32,2.77.64,4.16.95.03,0,.07.01.1.02ZM780.34,112.19c-.58.71-1.17,1.4-1.76,2.1,6.01-3,13.25-4.59,18.18-9.28-.56-1.02-1.18-2.01-1.96-2.87-6.58-.43-10.71,5.54-14.46,10.04ZM696.02,114.07c1.4-.14,2.8-.22,4.21-.27,2.31-.07,4.62,0,6.93.14,1.44-1.97,2.88-3.93,4.32-5.9,1.62-2.22,3.25-4.44,4.87-6.66-.16-.26-.33-.52-.49-.77-.14-.2-.27-.41-.41-.61-7.7,4.03-22.71,8.77-20.97-5.43,3.44-8.91,15.62-19.81,25.22-13.05,5.05-1.84,10.21-3.39,15.27-5.2,13.25-12.71-1.89-24.87-11.19-33.84-2.24,3.18-4.73,6.13-7.4,8.96-3.9,4.12-8.31,7.76-12.95,11.06,7.99,5.58,13.22,16.57.17,19.01-5.95-.33-9.15-6.58-13.57-9.85-4.49,11.33-7.6,23.18-8.51,35.35,2.77,2.02,5.44,4.16,8,6.44,2.16.24,4.34.44,6.51.62ZM666.66,97.74c.53-3.75,1.19-7.48,2.01-11.19.72-3.25,1.63-6.45,2.66-9.63-.12-.01-.25-.03-.37-.05-3.45,5.91-6.36,12.27-8.09,18.9,1.27.64,2.54,1.29,3.79,1.96ZM647.34,83.36c.58,1.06,1.16,2.12,1.75,3.17,2.9-7.68,6.18-15.45,11.19-22,.39-8.34,5.87-15.27,9.89-22.26-14.72,10.29-40.11,20.6-22.83,41.09ZM749.93,47.5c-2.01-11.73-.47-38.48-19.16-30,1.11,3.4,1.21,7.18.37,10.64,7.66,5.62,12.96,12.55,18.79,19.37ZM704.66,40.74c.58-.59,1.16-1.18,1.72-1.79.93-1.05,1.82-2.13,2.69-3.23-.29-.07-.59-.14-.88-.21-1.02,1.51-2.04,3.03-3.08,4.53.1-.14.2-.28.3-.42-.25.37-.5.75-.74,1.13Z"/>
    </g>
  </g>
</svg>