<?xml version="1.0" encoding="UTF-8"?>
<svg id="Layer_2" xmlns="http://www.w3.org/2000/svg" viewBox="0 0 576.8 865.75">
  <defs>
    <style>
      .cls-1 {
        fill: #b41412;
      }

      .cls-2 {
        fill: #c60211;
      }

      .cls-3 {
        fill: #d7a700;
      }
    </style>
  </defs>
  <g id="Vector_layer">
    <g>
      <circle class="cls-1" cx="313.35" cy="270.01" r="111.3"/>
      <path class="cls-2" d="M79.84,421.61l30.75,62.53c122.23,130.04,178.91,321.35,194.41,381.53.93.1,1.87.1,2.8,0,15.5-60.18,72.18-251.5,194.42-381.53l30.75-62.53c.92-1.86,1.34-3.79,1.36-5.68,27.12-42.39,42.75-92.85,42.47-146.97C576.03,120.46,454.38-.29,305.88,0,156.79.29,36.01,121.24,36.01,270.4c0,53.58,15.59,103.52,42.47,145.54.01,1.88.44,3.81,1.36,5.68ZM304.62,164.58c53.53-.99,97.12,42.6,96.13,96.13-.94,50.45-42.1,91.61-92.55,92.55-53.53.99-97.12-42.6-96.13-96.13.94-50.45,42.1-91.61,92.55-92.55Z"/>
      <path class="cls-3" d="M535.23,414.76c.83,3.23.95,6.61.96,9.94-.73,10.11-.23,20.31-1.87,30.34-.51,4.1-1.27,8.17-1.83,12.26-.87,8.36-1.49,16.82-4.21,24.84-3.2,9.3-6.81,18.46-10.85,27.42-4.44,10.62-9.04,21.4-15.89,30.73-3.63,4.5-7.48,8.84-10.73,13.64-3.89,5.66-7.93,11.27-13.08,15.86-7.53,7.42-16.63,12.95-25.22,18.99-4.82,3.34-9.51,6.84-14.36,10.12-7.41,4.93-15.05,9.48-22.54,14.29-14.94,9.52-30.56,18.02-46.89,24.94-10.82,4.82-21.6,9.75-32.65,14.05-5.49,2.22-11.04,4.33-16.53,6.58-8.18,3.49-16.45,6.82-25.15,8.81-7.13,1.92-14.44,3.49-21.86,3.18-1.78.13-3.55-.31-4.76-1.7-1.35-1.13-1.22-3-.52-4.46,2.5-4.64,7.73-6.9,11.92-9.75,7.68-4.77,14.98-10.11,22.37-15.33-7.84,3.74-15.72,7.48-23.99,10.19-5.32,1.73-10.83,2.85-16.3,4.02-2.71.52-5.47.59-8.22.42-2.7-.22-5.61-.34-8-1.72-1.98-1.25-2.96-4-2.1-6.19.92-1.94,2.59-3.49,4.24-4.82,2.1-1.64,4.49-2.82,6.87-3.97,3.97-2,7.97-3.97,11.95-5.96,9.37-4.95,18.68-10.01,28.2-14.68-10.96,3.32-22.23,5.81-33.7,6.29-4.3.02-8.81.52-12.97-.83-6.4-1.7-5.51-10.5-1.68-14.37,7.46-7.98,18.69-9.53,28.73-12.22,7.53-2.23,14.29-6.18,21.4-9.41-6.4.47-12.69-.81-18.96-1.89-6.84-.8-13.66-2.47-19.63-6.01-2.39-1.32-4.55-4.69-2.17-7.01,3.18-3.3,7.21-5.69,11.25-7.78,5.57-2.95,11.9-4.37,18.05-5.32,5.5-1.22,10.87-2.96,16.33-4.34,7.12-1.65,14.38-2.67,21.58-3.92-2.41-2.38-5.26-4.24-7.91-6.33-3.15-2.54-6.33-5.04-9.35-7.73-3.05-2.54-2.81-8.44,1.07-10.03,6.55-3.02,14.13-2.15,20.89-.31,6.88,1.47,13.85,3.25,20.69,4.77,6.07,1.18,12.25,1.25,18.37,1.79,4.74.38,9.47,1.09,14.23.77,7.55-.91,15.14-2.11,22.5-3.98,8.4-2.18,16.49-5.03,24.57-8.01,5.54-1.91,11.11-4.27,15.83-7.73,7.77-5.52,14.56-12.26,21.31-18.95,8.19-8.42,16.24-17,23.9-25.92,4.34-5.26,7.72-11.19,11.6-16.78,5.41-6.89,9.84-14.37,14.44-21.71,2.74-4.19,5.49-8.27,7.84-12.67,2.57-4.85,5.75-9.72,10.75-12.32.09-.37.37-.69.75-.8.56-.16,1.16.19,1.31.74Z"/>
      <path class="cls-3" d="M260.13,537.6c-10.78-.21-21.58-1.18-32.22-2.93-8.75-1.55-17.22-4.23-25.77-6.56-7.38-1.61-14.83-2.88-22.15-4.77-.38-.09-.77-.18-1.15-.27-.75-.32-1.5-.63-2.27-.86-1.86-.56-3.75-1.09-5.64-1.53-1.61-.37-3.23-.69-4.85-1.02l-3.19-1.06c-.84-.4-1.68-.81-2.51-1.24-1.86-.96-3.74-1.88-5.64-2.78-2.03-.96-4.04-1.95-6.13-2.8-1.05-.43-2.13-.79-3.2-1.15-1.05-.35-2.07-.73-3.1-1.13-.2-.09-.4-.18-.6-.26.19.08.38.17.57.25-.29-.13-.58-.25-.87-.38-2.4-1.2-4.65-2.62-7.11-3.7-1.04-.46-2.1-.88-3.13-1.37-1.04-.48-2.07-.98-3.1-1.47-2.09-1-4.25-1.9-6.31-2.95-1.95-1-3.88-2.05-5.79-3.14-3.69-2.24-7.26-4.68-11-6.85-1.95-1.14-3.91-2.26-5.88-3.38-1.93-1.1-3.91-2.11-5.87-3.16-1.15-.68-2.28-1.4-3.4-2.13-3-1.95-5.84-4.12-8.62-6.38-1.39-1.13-2.8-2.23-4.22-3.31-1.52-1.15-2.98-2.38-4.44-3.6-1.29-1.08-2.56-2.16-3.83-3.25h-.01c-8.76-10.4-17.94-20.52-25.88-31.56-4.36-6.9-9.04-13.6-13.12-20.68-2.53-4.16-5.48-8.08-7.46-12.55-4.26-10.87-9.47-21.43-12.13-32.85-3.26-11.45-6.77-22.81-7.63-34.76-1.13-12.98-3.31-25.99-2.19-39.04,1.66-15.77,6.31-31.09,11.16-46.13,1.47-4.49,3.07-8.97,5.44-13.09,2.81-4.67,6.02-9.06,8.87-13.66,3.29-5.39,7.28-10.26,11.63-14.83,2.05-2.41,3.97-4.92,5.94-7.4.79-.91,1.5-2.15,2.68-2.54.52-.63,1.71-.3,1.79.54,1.15,5.44,1.29,10.97,1.17,16.51-.2,11.88.11,23.75.07,35.62-1.52,23.61.44,47.31,6.39,70.18,2.42,9.68,6.17,18.91,9.85,28.16,2.24,5.94,5.25,11.54,8.18,17.13,3.38,6.71,6.6,13.49,12.12,18.7,5.37,5.83,11.8,10.49,18.19,15.1,7.75,4.75,16.29,8.37,24.83,11.38,10.35,3.08,20.95,7.14,31.91,5.72,7.01-.97,14.13-1.29,21.04-2.84,8.86-2.2,17.48-5.36,26.43-7.19,5.84-1.26,11.82-1.27,17.77-1.06,4.31.11,11-.24,12.74,4.63,1.41,4.65-3.28,8.16-6.59,10.55-2.46,1.75-5.52,2.73-7.62,4.94,2.02,2.68,5.67,3.25,8.52,4.72,5.13,2.22,10.11,4.84,14.71,8.03,4.8,3.57,10.72,4.42,16.15,6.52,2.88,1.15,5.66,2.5,8.42,3.93,4.98,2.59,10.19,5.47,13.4,10.24,1,1.67.86,4.23-1.27,4.89-2.53,1-5.34.91-8.02.91-3.29-.06-6.58-.23-9.85-.53-2.84-.27-5.63-.79-8.44-1.25-1.82-.19-3.79-.82-5.59-.37,1.72,1.85,4.29,2.45,6.56,3.29,3.1.99,6.27,1.76,9.43,2.55,4.78,1.22,9.53,2.72,14.07,4.66,4.1,1.95,7.77,4.71,11.37,7.46,2.64,1.79,4.96,4.9,1.39,7.19-4.11,2.21-9,1.89-13.46,1.17-5.42-.72-10.79-1.77-16.17-2.72-3.88-.67-7.79-1.2-11.72-1.42-1.16-.03-2.1-.11-3.09.42,4.59,3.79,10.67,4.8,16.3,6.15,3.22.81,6.41,1.78,9.59,2.75,4.65,1.35,8.97,3.61,13.21,5.92,2.27,1.25,4.53,2.69,5.94,4.93.93,1.28,1.76,2.83,1.52,4.46-1.85,6.12-16.72,5.22-21.85,4.54-6.85-.9-13.7-2.86-20.47-3.99-1.44-.26-2.89-.49-4.33-.71-2.27-.28-4.7-1.05-6.87-.02,3.79,3.12,8.92,3.52,13.5,4.73,6.58,1.42,13.04,3.44,19.05,6.51,9.48,4.93,20.29,13.09,3.86,18.16-5.15,1-10.42,1.16-15.67,1.16-1.46,0-2.91-.01-4.36-.02Z"/>
    </g>
  </g>
</svg>